<svg width="29" height="35" viewBox="0 0 29 35" fill="none" xmlns="http://www.w3.org/2000/svg">
<path d="M14.5002 0.710938C6.89868 0.710938 0.664307 6.72656 0.664307 14.0547C0.664307 19.9062 9.0315 29.5859 12.6409 33.5234C13.1331 34.0703 13.7893 34.3437 14.5002 34.3437C15.2112 34.3437 15.8674 34.0703 16.3596 33.5234C19.969 29.6406 28.3362 19.9062 28.3362 14.0547C28.3362 6.67188 22.1018 0.710938 14.5002 0.710938ZM14.9377 32.2109C14.6643 32.4844 14.2815 32.4844 14.0627 32.2109C11.3831 29.3125 2.57837 19.3594 2.57837 14.0547C2.57837 7.71094 7.93774 2.625 14.5002 2.625C21.0627 2.625 26.4221 7.76562 26.4221 14.0547C26.4221 19.3594 17.6174 29.2578 14.9377 32.2109Z" fill="#3056D3"/>
<path d="M14.5002 8.58594C11.2737 8.58594 8.59399 11.2109 8.59399 14.4922C8.59399 17.7188 11.219 20.3984 14.5002 20.3984C17.7815 20.3984 20.4065 17.7734 20.4065 14.4922C20.4065 11.2109 17.7268 8.58594 14.5002 8.58594ZM14.5002 18.4297C12.3127 18.4297 10.5081 16.625 10.5081 14.4375C10.5081 12.25 12.3127 10.4453 14.5002 10.4453C16.6877 10.4453 18.4924 12.25 18.4924 14.4375C18.4924 16.625 16.6877 18.4297 14.5002 18.4297Z" fill="#3056D3"/>
</svg>
